<svg width="42" height="42" viewBox="0 0 42 42" fill="none" xmlns="http://www.w3.org/2000/svg">
<circle cx="21" cy="21" r="21" fill="#EBE8E8"/>
<path d="M15.1663 23.4999C13.3247 23.4999 11.833 24.9916 11.833 26.8332C11.833 27.4582 12.008 28.0499 12.3163 28.5499C12.8913 29.5166 13.9497 30.1666 15.1663 30.1666C16.383 30.1666 17.4413 29.5166 18.0163 28.5499C18.3247 28.0499 18.4997 27.4582 18.4997 26.8332C18.4997 24.9916 17.008 23.4999 15.1663 23.4999ZM16.408 27.4416H15.7913V28.0916C15.7913 28.4332 15.508 28.7166 15.1663 28.7166C14.8247 28.7166 14.5413 28.4332 14.5413 28.0916V27.4416H13.9247C13.583 27.4416 13.2997 27.1582 13.2997 26.8166C13.2997 26.4749 13.583 26.1916 13.9247 26.1916H14.5413V25.5999C14.5413 25.2582 14.8247 24.9749 15.1663 24.9749C15.508 24.9749 15.7913 25.2582 15.7913 25.5999V26.1916H16.408C16.7497 26.1916 17.033 26.4749 17.033 26.8166C17.033 27.1582 16.758 27.4416 16.408 27.4416ZM28.9163 21.4166H26.833C25.9163 21.4166 25.1663 22.1666 25.1663 23.0832C25.1663 23.9999 25.9163 24.7499 26.833 24.7499H28.9163C29.1497 24.7499 29.333 24.5666 29.333 24.3332V21.8332C29.333 21.5999 29.1497 21.4166 28.9163 21.4166ZM24.774 15.5C25.024 15.7417 24.8157 16.1167 24.4657 16.1167L17.5657 16.1084C17.1657 16.1084 16.9657 15.625 17.249 15.3417L18.7074 13.875C19.9407 12.65 21.9323 12.65 23.1657 13.875L24.7407 15.4667C24.749 15.475 24.7657 15.4917 24.774 15.5Z" fill="#363A3F"/>
<path d="M29.2245 26.5499C28.7162 28.2666 27.2495 29.3333 25.2495 29.3333H19.8328C19.5078 29.3333 19.2995 28.9749 19.4328 28.6749C19.6828 28.0916 19.8412 27.4333 19.8412 26.8333C19.8412 24.3083 17.7828 22.2499 15.2578 22.2499C14.6245 22.2499 14.0078 22.3833 13.4411 22.6333C13.1328 22.7666 12.7578 22.5583 12.7578 22.2249V20.9999C12.7578 18.7333 14.1245 17.1499 16.2495 16.8833C16.4578 16.8499 16.6828 16.8333 16.9161 16.8333H25.2495C25.4662 16.8333 25.6745 16.8416 25.8745 16.8749C27.5578 17.0666 28.7745 18.0916 29.2245 19.6166C29.3078 19.8916 29.1078 20.1666 28.8245 20.1666H26.9162C25.1078 20.1666 23.6745 21.8166 24.0662 23.6916C24.3412 25.0583 25.6078 25.9999 26.9995 25.9999H28.8245C29.1162 25.9999 29.3078 26.2833 29.2245 26.5499Z" fill="#363A3F"/>
</svg>
