<svg width="42" height="42" viewBox="0 0 42 42" fill="none" xmlns="http://www.w3.org/2000/svg">
<circle cx="21" cy="21" r="21" fill="#4E5257"/>
<path d="M29.3338 20.141V21.8577C29.3338 22.316 28.9672 22.691 28.5005 22.7077H26.8672C25.9672 22.7077 25.1422 22.0493 25.0672 21.1493C25.0172 20.6243 25.2172 20.1327 25.5672 19.791C25.8755 19.4743 26.3005 19.291 26.7672 19.291H28.5005C28.9672 19.3077 29.3338 19.6827 29.3338 20.141Z" fill="#C8EE44"/>
<path d="M28.0587 23.9584H26.867C25.2837 23.9584 23.9503 22.7667 23.817 21.2501C23.742 20.3834 24.0587 19.5167 24.692 18.9001C25.2253 18.3501 25.967 18.0417 26.767 18.0417H28.0587C28.3003 18.0417 28.5003 17.8417 28.4753 17.6001C28.292 15.5751 26.9503 14.1917 24.9587 13.9584C24.7587 13.9251 24.5503 13.9167 24.3337 13.9167H16.8337C16.6003 13.9167 16.3753 13.9334 16.1587 13.9667C14.0337 14.2334 12.667 15.8167 12.667 18.0834V23.9167C12.667 26.2167 14.5337 28.0834 16.8337 28.0834H24.3337C26.667 28.0834 28.2753 26.6251 28.4753 24.4001C28.5003 24.1584 28.3003 23.9584 28.0587 23.9584ZM21.8337 19.1251H16.8337C16.492 19.1251 16.2087 18.8417 16.2087 18.5001C16.2087 18.1584 16.492 17.8751 16.8337 17.8751H21.8337C22.1753 17.8751 22.4587 18.1584 22.4587 18.5001C22.4587 18.8417 22.1753 19.1251 21.8337 19.1251Z" fill="#C8EE44"/>
</svg>
